<mxfile host="app.diagrams.net" agent="Mozilla/5.0 (Windows NT 10.0; Win64; x64) AppleWebKit/537.36 (KHTML, like Gecko) Chrome/135.0.0.0 Safari/537.36" version="27.0.2">
  <diagram name="PÃ¡gina-1" id="RpwQGoGYZjUmVX78xZBA">
    <mxGraphModel dx="1793" dy="1205" grid="1" gridSize="10" guides="1" tooltips="1" connect="1" arrows="1" fold="1" page="0" pageScale="1" pageWidth="827" pageHeight="1169" math="0" shadow="0">
      <root>
        <mxCell id="0" />
        <mxCell id="1" parent="0" />
        <mxCell id="iX65m-ZONL90zX9ajTUJ-1" style="edgeStyle=orthogonalEdgeStyle;rounded=0;orthogonalLoop=1;jettySize=auto;html=1;entryX=0.5;entryY=0;entryDx=0;entryDy=0;" parent="1" source="iX65m-ZONL90zX9ajTUJ-2" target="iX65m-ZONL90zX9ajTUJ-4" edge="1">
          <mxGeometry relative="1" as="geometry" />
        </mxCell>
        <mxCell id="iX65m-ZONL90zX9ajTUJ-2" value="&lt;font style=&quot;font-size: 16px;&quot;&gt;INICIO&lt;/font&gt;" style="ellipse;whiteSpace=wrap;html=1;fillColor=#dae8fc;strokeColor=#6c8ebf;" parent="1" vertex="1">
          <mxGeometry x="205" y="-210" width="120" height="80" as="geometry" />
        </mxCell>
        <mxCell id="iX65m-ZONL90zX9ajTUJ-3" style="edgeStyle=orthogonalEdgeStyle;rounded=0;orthogonalLoop=1;jettySize=auto;html=1;entryX=0.5;entryY=0;entryDx=0;entryDy=0;" parent="1" source="iX65m-ZONL90zX9ajTUJ-4" target="iX65m-ZONL90zX9ajTUJ-6" edge="1">
          <mxGeometry relative="1" as="geometry" />
        </mxCell>
        <mxCell id="iX65m-ZONL90zX9ajTUJ-4" value="nombre&lt;div&gt;nota1, nota2, nota3, nota4, nota5, nota6, nota6, nota7, nota8, nota9, nota10&lt;/div&gt;&lt;div&gt;promedio&lt;/div&gt;&lt;div&gt;sumatorianotas&lt;/div&gt;&lt;div&gt;i, j&lt;/div&gt;" style="shape=parallelogram;perimeter=parallelogramPerimeter;whiteSpace=wrap;html=1;fixedSize=1;" parent="1" vertex="1">
          <mxGeometry x="82.5" y="-100" width="365" height="90" as="geometry" />
        </mxCell>
        <mxCell id="Av6lM8txRgh0IgwJLnuI-39" style="edgeStyle=orthogonalEdgeStyle;rounded=0;orthogonalLoop=1;jettySize=auto;html=1;" parent="1" source="iX65m-ZONL90zX9ajTUJ-6" target="Av6lM8txRgh0IgwJLnuI-37" edge="1">
          <mxGeometry relative="1" as="geometry" />
        </mxCell>
        <mxCell id="iX65m-ZONL90zX9ajTUJ-6" value="string nombre = &quot;&quot;;&lt;div&gt;int nota1 = 0, nota2 = 0, nota3 = 0, nota4 = 0, nota5 = 0, nota6 = 0, nota6 = 0, nota7 = 0,&amp;nbsp; nota8 = 0, nota9 = 0, nota10 = 0,&lt;/div&gt;&lt;div&gt;double promedio = 0,&lt;/div&gt;&lt;div&gt;&lt;span style=&quot;background-color: transparent; color: light-dark(rgb(0, 0, 0), rgb(255, 255, 255));&quot;&gt;int i = 0, j = 0;&lt;/span&gt;&lt;/div&gt;&lt;div&gt;&lt;span style=&quot;background-color: transparent; color: light-dark(rgb(0, 0, 0), rgb(255, 255, 255));&quot;&gt;string[,] matriznotas = new matriznotas[10,10];&lt;br&gt;string[] arreglonombre =&amp;nbsp; new arreglonombre[10];&lt;/span&gt;&lt;/div&gt;&lt;div&gt;&lt;span style=&quot;background-color: transparent; color: light-dark(rgb(0, 0, 0), rgb(255, 255, 255));&quot;&gt;int promedio = 0;&lt;/span&gt;&lt;/div&gt;" style="rounded=0;whiteSpace=wrap;html=1;" parent="1" vertex="1">
          <mxGeometry x="80" y="20" width="350" height="120" as="geometry" />
        </mxCell>
        <mxCell id="q6-_o-rWnfTepcUR5zlK-4" style="edgeStyle=orthogonalEdgeStyle;rounded=0;orthogonalLoop=1;jettySize=auto;html=1;entryX=1;entryY=0.5;entryDx=0;entryDy=0;" edge="1" parent="1" source="Av6lM8txRgh0IgwJLnuI-24" target="Av6lM8txRgh0IgwJLnuI-28">
          <mxGeometry relative="1" as="geometry">
            <Array as="points">
              <mxPoint x="410" y="510" />
              <mxPoint x="410" y="335" />
            </Array>
          </mxGeometry>
        </mxCell>
        <mxCell id="Av6lM8txRgh0IgwJLnuI-24" value="j++" style="rounded=0;whiteSpace=wrap;html=1;" parent="1" vertex="1">
          <mxGeometry x="161.25" y="490" width="210" height="40" as="geometry" />
        </mxCell>
        <mxCell id="Av6lM8txRgh0IgwJLnuI-45" style="edgeStyle=orthogonalEdgeStyle;rounded=0;orthogonalLoop=1;jettySize=auto;html=1;" parent="1" source="Av6lM8txRgh0IgwJLnuI-28" edge="1" target="Av6lM8txRgh0IgwJLnuI-44">
          <mxGeometry relative="1" as="geometry">
            <mxPoint x="140" y="335" as="targetPoint" />
          </mxGeometry>
        </mxCell>
        <mxCell id="Av6lM8txRgh0IgwJLnuI-46" value="NO" style="edgeLabel;html=1;align=center;verticalAlign=middle;resizable=0;points=[];" parent="Av6lM8txRgh0IgwJLnuI-45" vertex="1" connectable="0">
          <mxGeometry x="-0.2182" y="-1" relative="1" as="geometry">
            <mxPoint as="offset" />
          </mxGeometry>
        </mxCell>
        <mxCell id="Av6lM8txRgh0IgwJLnuI-28" value="Si j &amp;lt; 10" style="rhombus;whiteSpace=wrap;html=1;" parent="1" vertex="1">
          <mxGeometry x="216.25" y="290" width="97.5" height="90" as="geometry" />
        </mxCell>
        <mxCell id="Av6lM8txRgh0IgwJLnuI-33" style="edgeStyle=orthogonalEdgeStyle;rounded=0;orthogonalLoop=1;jettySize=auto;html=1;" parent="1" source="Av6lM8txRgh0IgwJLnuI-28" edge="1" target="q6-_o-rWnfTepcUR5zlK-2">
          <mxGeometry relative="1" as="geometry">
            <mxPoint x="266.3899999999999" y="424.31999999999994" as="targetPoint" />
          </mxGeometry>
        </mxCell>
        <mxCell id="Av6lM8txRgh0IgwJLnuI-36" value="SI" style="edgeLabel;html=1;align=center;verticalAlign=middle;resizable=0;points=[];" parent="Av6lM8txRgh0IgwJLnuI-33" vertex="1" connectable="0">
          <mxGeometry x="-0.3688" y="1" relative="1" as="geometry">
            <mxPoint as="offset" />
          </mxGeometry>
        </mxCell>
        <mxCell id="Av6lM8txRgh0IgwJLnuI-40" style="edgeStyle=orthogonalEdgeStyle;rounded=0;orthogonalLoop=1;jettySize=auto;html=1;" parent="1" source="Av6lM8txRgh0IgwJLnuI-37" target="Av6lM8txRgh0IgwJLnuI-28" edge="1">
          <mxGeometry relative="1" as="geometry">
            <mxPoint x="266.3000000000002" y="280" as="targetPoint" />
          </mxGeometry>
        </mxCell>
        <mxCell id="Av6lM8txRgh0IgwJLnuI-41" value="SI" style="edgeLabel;html=1;align=center;verticalAlign=middle;resizable=0;points=[];" parent="Av6lM8txRgh0IgwJLnuI-40" vertex="1" connectable="0">
          <mxGeometry x="-0.6428" y="-2" relative="1" as="geometry">
            <mxPoint as="offset" />
          </mxGeometry>
        </mxCell>
        <mxCell id="q6-_o-rWnfTepcUR5zlK-1" style="edgeStyle=orthogonalEdgeStyle;rounded=0;orthogonalLoop=1;jettySize=auto;html=1;entryX=0.5;entryY=0;entryDx=0;entryDy=0;" edge="1" parent="1" source="Av6lM8txRgh0IgwJLnuI-37" target="Av6lM8txRgh0IgwJLnuI-44">
          <mxGeometry relative="1" as="geometry" />
        </mxCell>
        <mxCell id="q6-_o-rWnfTepcUR5zlK-5" style="edgeStyle=orthogonalEdgeStyle;rounded=0;orthogonalLoop=1;jettySize=auto;html=1;" edge="1" parent="1" source="Av6lM8txRgh0IgwJLnuI-37">
          <mxGeometry relative="1" as="geometry">
            <mxPoint x="410" y="210" as="targetPoint" />
          </mxGeometry>
        </mxCell>
        <mxCell id="q6-_o-rWnfTepcUR5zlK-6" value="NO" style="edgeLabel;html=1;align=center;verticalAlign=middle;resizable=0;points=[];" vertex="1" connectable="0" parent="q6-_o-rWnfTepcUR5zlK-5">
          <mxGeometry x="-0.0712" y="-3" relative="1" as="geometry">
            <mxPoint as="offset" />
          </mxGeometry>
        </mxCell>
        <mxCell id="Av6lM8txRgh0IgwJLnuI-37" value="Si i &amp;lt; 10" style="rhombus;whiteSpace=wrap;html=1;" parent="1" vertex="1">
          <mxGeometry x="226.25" y="170" width="80" height="80" as="geometry" />
        </mxCell>
        <mxCell id="Av6lM8txRgh0IgwJLnuI-44" value="i++" style="rounded=0;whiteSpace=wrap;html=1;" parent="1" vertex="1">
          <mxGeometry x="37.5" y="315" width="100" height="40" as="geometry" />
        </mxCell>
        <mxCell id="Av6lM8txRgh0IgwJLnuI-86" value="&lt;font style=&quot;font-size: 16px;&quot;&gt;FIN&lt;/font&gt;" style="ellipse;whiteSpace=wrap;html=1;fillColor=#dae8fc;strokeColor=#6c8ebf;" parent="1" vertex="1">
          <mxGeometry x="780" y="170" width="120" height="80" as="geometry" />
        </mxCell>
        <mxCell id="q6-_o-rWnfTepcUR5zlK-3" style="edgeStyle=orthogonalEdgeStyle;rounded=0;orthogonalLoop=1;jettySize=auto;html=1;" edge="1" parent="1" source="q6-_o-rWnfTepcUR5zlK-2" target="Av6lM8txRgh0IgwJLnuI-24">
          <mxGeometry relative="1" as="geometry" />
        </mxCell>
        <mxCell id="q6-_o-rWnfTepcUR5zlK-2" value="sumatorianotas = sumatorianotas + posicion [i,j]" style="rounded=0;whiteSpace=wrap;html=1;" vertex="1" parent="1">
          <mxGeometry x="160" y="420" width="210" height="40" as="geometry" />
        </mxCell>
        <mxCell id="q6-_o-rWnfTepcUR5zlK-8" style="edgeStyle=orthogonalEdgeStyle;rounded=0;orthogonalLoop=1;jettySize=auto;html=1;" edge="1" parent="1" source="q6-_o-rWnfTepcUR5zlK-7" target="Av6lM8txRgh0IgwJLnuI-86">
          <mxGeometry relative="1" as="geometry" />
        </mxCell>
        <mxCell id="q6-_o-rWnfTepcUR5zlK-7" value="Imprimir en pantalla: $&quot;El promedio de la clase es de: {sumatorianotas / 100}&quot;;" style="shape=display;whiteSpace=wrap;html=1;" vertex="1" parent="1">
          <mxGeometry x="410" y="160" width="310" height="100" as="geometry" />
        </mxCell>
      </root>
    </mxGraphModel>
  </diagram>
</mxfile>
